<svg width="200" height="47" viewBox="0 0 200 47" fill="none" xmlns="http://www.w3.org/2000/svg">
<path opacity="0.7" d="M53.9664 7.27489H62.5272V8.54757H55.249V14.4934H62.5272V15.7661H53.9664V7.27489ZM55.5871 12.9622C56.5549 12.591 57.3503 12.2065 57.9734 11.8088C57.0984 10.9537 56.4621 9.95614 56.0644 8.81603H57.5856C57.9303 9.67774 58.4142 10.4003 59.0373 10.9836C59.667 10.4069 60.1542 9.68437 60.4989 8.81603H62.0201C61.6224 9.95614 60.9861 10.9537 60.1111 11.8088C60.7342 12.2065 61.5296 12.591 62.4974 12.9622V14.3641C61.1584 13.9399 60.0084 13.3831 59.0472 12.6937C58.0728 13.3831 56.9194 13.9399 55.5871 14.3641V12.9622ZM70.9687 16.0147C70.5511 15.1065 70.1865 13.92 69.875 12.4551H69.0298C68.884 13.171 68.7216 13.8206 68.5426 14.4039C68.3703 14.9872 68.1648 15.5241 67.9262 16.0147H66.5342C67.0578 14.8547 67.4589 13.6681 67.7373 12.4551H66.5541V11.1824H68.5725V9.12426H66.9518V7.85157H68.5725V6.94677H69.865V7.85157H72.2116V11.1824H72.649V12.4551H71.1676C71.4526 13.6814 71.8503 14.8679 72.3607 16.0147H70.9687ZM63.4817 13.8272L64.4959 13.6582V10.2876H63.5414V8.95523H64.4959V7.02632H65.8183V8.95523H66.7728V10.2876H65.8183V13.4395L66.7828 13.2804V14.6127L63.4817 15.1596V13.8272ZM70.9786 11.1824V9.12426H69.8253V11.1824H70.9786ZM78.8932 8.76632H78.2568V7.5334H79.261L79.4201 6.99649H80.6928L80.5337 7.5334H82.3433V8.76632H80.0764L79.7184 10.0191H80.146V9.14414H81.2397V10.0191H82.2439V11.2123H81.1999V12.1867H82.4428V13.3798H81.1999V14.4337H79.957V13.3798H78.2568V12.1867H79.957V11.2123H78.1673L78.8932 8.76632ZM73.2953 10.3273C73.6135 9.24026 73.7825 8.14654 73.8024 7.0462H75.085L75.0552 7.79192H76.2185V9.02483H74.926C74.8994 9.24357 74.8597 9.46563 74.8066 9.691H76.0793V10.904H75.433V11.779H76.2185V12.992H75.433V14.4139L76.2086 14.2249V15.5076L74.2101 15.9948V12.992H73.4942V11.779H74.2101V10.904H73.7925V10.3273H73.2953ZM76.129 15.9948C76.4008 15.1198 76.5864 14.3376 76.6858 13.6483C76.7853 12.9523 76.8416 12.127 76.8549 11.1725H76.2981V9.87992H78.0878C78.0812 10.8742 78.0613 11.6796 78.0281 12.296C78.0016 12.9059 77.9453 13.4991 77.8591 14.0758C78.0646 14.2747 78.2966 14.4205 78.5551 14.5133C78.8136 14.5995 79.1252 14.6425 79.4897 14.6425H82.5422V15.8953H79.4897C79.0522 15.8953 78.6877 15.8523 78.396 15.7661C78.1044 15.6865 77.8458 15.5473 77.6205 15.3485L77.4614 15.9948H76.129ZM77.6602 7.0462L78.058 9.2038H76.8748L76.477 7.0462H77.6602ZM83.6657 7.28483H92.1569V15.9948H90.8942V15.3883H89.89L89.2337 13.3699L88.5775 15.3883H87.2452L86.5889 13.3699L85.9327 15.3883H84.9285V15.9948H83.6657V7.28483ZM85.9029 11.8983L84.9484 9.00494H86.1216L86.6486 10.6952L87.1855 9.00494H88.7565L89.2934 10.7052L89.8303 9.00494H90.8942V8.56746H84.9285V14.8712L85.9029 11.8983ZM87.9113 13.8471L88.5477 11.8983L87.9312 10.039L87.2949 11.9679L87.9113 13.8471ZM90.8942 14.8712V9.09443L89.9397 11.9679L90.8942 14.8712ZM93.37 14.6525L96.661 14.3244V15.607L93.37 15.9351V14.6525ZM94.6029 7.0462H95.8258L94.7421 9.88986L95.0801 10.0887L95.5474 8.82597H96.7108L95.3983 12.3656H96.6113V13.6483H93.5191L94.404 11.252L93.2606 10.6057L94.6029 7.0462ZM96.8201 10.8046C97.5625 10.5991 98.1724 10.3605 98.6496 10.0887C98.3712 9.77717 98.1326 9.43912 97.9337 9.07454C97.6487 9.29329 97.3106 9.46232 96.9196 9.58163V8.33877C97.4101 8.04712 97.7713 7.63946 98.0033 7.1158H101.921C101.815 8.26917 101.384 9.26014 100.628 10.0887C101.106 10.3605 101.715 10.5991 102.458 10.8046V12.127C101.357 11.8751 100.419 11.4807 99.6439 10.9438C98.8551 11.4807 97.9138 11.8751 96.8201 12.127V10.8046ZM97.2576 12.0773H102.01V15.9252H97.2576V12.0773ZM100.728 14.6624V13.34H98.5402V14.6624H100.728ZM98.928 8.33877C99.1136 8.72323 99.3489 9.06129 99.634 9.35294C99.9256 9.05466 100.158 8.7166 100.33 8.33877H98.928ZM109.776 16.1936C109.285 15.4446 108.914 14.7121 108.662 13.9963C108.41 13.2804 108.284 12.538 108.284 11.7691C108.284 11.0001 108.41 10.2577 108.662 9.54186C108.914 8.82597 109.285 8.06037 109.776 7.24506H111.227C110.757 8.03386 110.402 8.79614 110.163 9.53192C109.931 10.2677 109.815 10.9968 109.815 11.7193C109.815 12.4419 109.931 13.171 110.163 13.9068C110.402 14.6425 110.757 15.4048 111.227 16.1936H109.776ZM113.166 14.4337H116.517V7.0462H117.889V9.43249H121.687V10.7251H117.889V14.4337H122.314V15.786H113.166V14.4337ZM131.749 11.8784H132.356V13.0517H131.769L131.839 15.9252H125.883L126.191 13.0517H125.545V11.8784H126.311L126.599 9.16403C126.254 9.46894 125.893 9.68437 125.515 9.81032V8.44814C125.76 8.30232 125.969 8.12666 126.142 7.92117C126.321 7.70906 126.473 7.45386 126.599 7.15557H132.008V8.34872H127.295C127.116 8.62712 126.917 8.86906 126.698 9.07454H131.68L131.749 11.8784ZM123.099 15.9948C123.57 14.6492 123.908 13.2373 124.113 11.7591H125.396C125.21 13.403 124.909 14.8149 124.491 15.9948H123.099ZM123.149 9.38277L125.426 9.93957V11.2719L123.149 10.735V9.38277ZM123.368 7.0462L125.366 7.54334V8.89557L123.368 8.39843V7.0462ZM128.548 14.7917L128.309 13.4395H129.413L129.651 14.7917H130.636L130.596 13.0517H127.404L127.245 14.7917H128.548ZM128.548 11.8784L128.329 10.6256H129.433L129.651 11.8784H130.566L130.526 10.1981H127.653L127.504 11.8784H128.548ZM134.195 16.1936C134.666 15.4048 135.017 14.6425 135.249 13.9068C135.488 13.171 135.607 12.4419 135.607 11.7193C135.607 10.9968 135.488 10.2677 135.249 9.53192C135.017 8.79614 134.666 8.03386 134.195 7.24506H135.647C136.138 8.06037 136.509 8.82597 136.761 9.54186C137.012 10.2577 137.138 11.0001 137.138 11.7691C137.138 12.538 137.012 13.2804 136.761 13.9963C136.509 14.7121 136.138 15.4446 135.647 16.1936H134.195ZM149.348 14.6823H150.522V9.78049H149.1V10.3174C149.1 11.3846 148.994 12.3756 148.782 13.2903C148.576 14.2051 148.231 15.1065 147.747 15.9948H146.117C146.747 15.0734 147.184 14.1785 147.429 13.3102C147.681 12.4352 147.807 11.4376 147.807 10.3174V9.78049H146.694V8.46803H147.807V6.94677H149.1V8.46803H151.814V15.9948H149.348V14.6823ZM142.995 13.5289L144.148 13.34V8.80609H143.124V7.51352H146.455V8.80609H145.441V13.1213L146.614 12.9224V14.3045L142.995 14.911V13.5289ZM153.236 10.6057H157.571V15.9948H156.318V15.0601H154.489V15.9948H153.236V10.6057ZM153.037 8.93534H153.504L154.578 7.00643H156.08L155.006 8.93534H156.288L155.96 7.80186H157.223L157.889 10.1285H153.037V8.93534ZM156.318 13.9963V13.4196H154.489V13.9963H156.318ZM156.318 12.3557V11.7492H154.489V12.3557H156.318ZM158.227 11.5205H159.51V12.6937C160.279 12.475 161.071 12.1635 161.886 11.7591V13.0716C161.144 13.4494 160.352 13.7377 159.51 13.9366V14.6326H161.986V15.9152H158.227V11.5205ZM158.227 7.0462H159.51V8.25923C160.259 8.05374 161.051 7.75546 161.886 7.36437V8.63706C161.157 9.00826 160.365 9.28997 159.51 9.4822V9.99923H161.986V11.252H158.227V7.0462ZM163.179 7.63283H165.197V6.89706H166.49V7.63283H168.419V6.89706H169.711V7.63283H171.73V8.88563H169.711V9.65123H168.419V8.88563H166.49V9.65123H165.197V8.88563H163.179V7.63283ZM163.298 10.0987H171.411L171.312 15.5076H168.608V14.2349H170.069L170.129 11.3713H166.748V15.9948H165.436V11.3713H163.298V10.0987ZM176.114 9.25352V6.84734H177.427V7.42403H181.464V8.63706H177.427V9.25352H181.106V13.34H173.688V9.25352H176.114ZM173.579 13.7278H175.001L174.205 15.9948H172.784L173.579 13.7278ZM179.813 12.1568V10.5063H174.981V12.1568H179.813ZM175.786 13.7278H177.109L176.751 15.9948H175.428L175.786 13.7278ZM179.008 13.7278L179.366 15.9948H178.043L177.685 13.7278H179.008ZM181.215 13.7278L182.011 15.9948H180.589L179.793 13.7278H181.215Z" fill="white"/>
<path d="M53.0498 36.3592H55.1519L59.178 27.7727H61.8679L57.8419 36.3592H64.2372L63.1327 33.6692H65.7692L67.8179 38.6394H53.0498V36.3592ZM51.981 31.4068C53.0261 29.7916 53.8693 28.2715 54.5106 26.8463C55.1519 25.4093 55.6626 23.9248 56.0426 22.3928H58.5188C58.1507 24.0198 57.6756 25.5578 57.0937 27.0067C56.5236 28.4556 55.8051 29.9223 54.9382 31.4068H51.981ZM64.7716 22.3928C65.1517 23.9248 65.6624 25.4093 66.3037 26.8463C66.945 28.2715 67.7882 29.7916 68.8333 31.4068H65.8761C65.0092 29.9223 64.2847 28.4556 63.7028 27.0067C63.1327 25.5578 62.6636 24.0198 62.2955 22.3928H64.7716ZM70.0625 30.9793H73.5541V26.6682H70.6147V24.388H73.5541V22.5353H75.8521V24.388H80.5907V22.5353H82.8888V24.388H85.8281V26.6682H82.8888V30.9793H86.3804V33.2595H70.0625V30.9793ZM70.205 36.5373C72.2358 35.9554 74.4804 35.1359 76.9388 34.0789V36.5195C74.9792 37.3983 72.7346 38.2 70.205 38.9244V36.5373ZM80.5907 30.9793V26.6682H75.8521V30.9793H80.5907ZM79.5041 34.0789C81.9624 35.1359 84.207 35.9554 86.2379 36.5373V38.9244C83.7082 38.2 81.4636 37.3983 79.5041 36.5195V34.0789ZM87.8946 36.8045C89.1535 36.7689 90.2104 36.5551 91.0655 36.1632L88.7497 35.0053L89.3197 33.7048H87.8946V31.7809H90.157L90.6202 30.7299H92.8648L92.4016 31.7809H97.0511V33.7048H95.8398C95.4716 34.5362 95.05 35.2488 94.5749 35.8426L96.7483 36.9649V38.3722C97.8528 36.8283 98.7138 35.421 99.3314 34.1502L97.9953 30.2311H96.6592L96.8552 30.6052H94.86C94.4205 29.7026 94.1058 28.7465 93.9158 27.7371H93.417V30.4626H91.3506V27.7371H90.8696C90.6558 28.8059 90.3411 29.762 89.9254 30.6052H87.9124C88.3993 29.7263 88.7675 28.7703 89.0169 27.7371H87.8946V25.7062H91.3506V22.7134H93.417V25.7062H96.873V27.7371H95.7507C95.9407 28.5209 96.196 29.2453 96.5167 29.9104C97.253 27.6064 97.7459 25.154 97.9953 22.5531H100.186C100.151 22.9925 100.085 23.5804 99.9905 24.3167H104.23V26.6326H103.571C103.488 27.7489 103.357 28.8475 103.179 29.9282C102.93 31.2821 102.609 32.5291 102.217 33.6692L104.319 38.6038H102.021L100.917 35.9673C100.596 36.6205 100.091 37.4993 99.4026 38.6038H96.7483V39.0313L93.1498 37.2143C91.7484 38.2475 89.9967 38.77 87.8946 38.7819V36.8045ZM90.2639 22.8916L90.9586 25.2787H88.9991L88.3221 22.8916H90.2639ZM92.7935 34.934C93.1023 34.6015 93.3933 34.1918 93.6664 33.7048H91.5643L91.3506 34.1858L92.7935 34.934ZM94.4859 22.8916H96.4454L95.7685 25.2787H93.8267L94.4859 22.8916ZM100.561 31.7453C101.012 30.3083 101.327 28.604 101.505 26.6326H99.6342L99.4026 27.8083L100.561 31.7453ZM106.243 36.6264H107.526V33.1526L105.762 33.598V31.1218L107.526 30.6764V27.3808H105.94V25.1362H107.526V22.66H109.842V25.1362H111.267V27.3808H109.842V30.1064L111.445 29.6966V32.1728L109.842 32.5825V38.7819H106.243V36.6264ZM110.59 38.7997C110.982 37.7071 111.267 36.8283 111.445 36.1632C111.635 35.4863 111.766 34.7618 111.837 33.9899C111.908 33.2179 111.944 32.1966 111.944 30.9258V22.8559H121.813V28.0043H119.159V29.3403H122.223V31.4424H119.159V32.9032H121.76V38.7819H114.313V32.9032H116.914V31.4424H114.206C114.183 32.4757 114.088 33.6633 113.921 35.0053C113.767 36.3473 113.5 37.6121 113.12 38.7997H110.59ZM116.914 29.3403V28.0043H114.224V29.3403H116.914ZM119.497 26.0803V24.7799H114.224V26.0803H119.497ZM119.568 36.8223V34.8628H116.504V36.8223H119.568ZM139.859 38.9601C137.852 38.5919 136.124 38.0159 134.675 37.2321C133.202 38.0159 131.474 38.5919 129.491 38.9601V36.8402C130.643 36.6145 131.688 36.2879 132.626 35.8604C131.367 34.7559 130.548 33.4614 130.168 31.9769H129.402V28.4496H139.948V31.9769H139.182C138.814 33.4258 138 34.7084 136.741 35.8247C137.632 36.276 138.671 36.6145 139.859 36.8402V38.9601ZM123.434 30.9614L125.251 30.5161V27.3808H123.612V25.1362H125.251V22.66H127.549V25.1362H128.654V27.3808H127.531V29.946L128.743 29.6432V32.1194L127.531 32.4222L127.514 38.7819H124.04V36.6264H125.251V32.9923L123.434 33.4376V30.9614ZM129.687 23.0875C131.789 23.0875 133.559 23.0519 134.996 22.9806C136.444 22.8975 137.911 22.7491 139.396 22.5353V24.6374C137.971 24.8511 136.528 24.9996 135.067 25.0827C133.618 25.154 131.825 25.1896 129.687 25.1896V23.0875ZM132.021 25.6172L132.537 28.0043H130.382L129.865 25.6172H132.021ZM137.739 31.5849V30.5161H131.611V31.5849H137.739ZM133.25 33.4911C133.677 34.0849 134.188 34.5956 134.782 35.0231C135.376 34.7856 135.892 34.2749 136.332 33.4911H133.25ZM135.405 25.6172L135.922 28.0043H133.784L133.268 25.6172H135.405ZM137.187 25.439H139.271L138.754 28.0043H136.67L137.187 25.439ZM141.124 37.8556C141.765 34.649 142.086 31.2049 142.086 27.5233H144.063C144.063 31.4543 143.784 34.8984 143.226 37.8556H141.124ZM141.48 24.5839H144.811V22.66H147.056V24.5839H148.232V26.7929H147.056V29.0553L148.303 29.8391V32.5291L147.056 31.7453V38.7819H144.811V26.7929H141.48V24.5839ZM148.445 36.1632C149.716 35.3556 150.809 34.3224 151.723 33.0635C150.571 31.0565 149.793 28.6753 149.389 25.92H148.641V23.6398H156.978C156.729 27.3214 155.874 30.4626 154.413 33.0635C155.351 34.3343 156.444 35.3675 157.691 36.1632V38.9957C155.874 37.9862 154.33 36.6798 153.059 35.0765C151.812 36.6798 150.274 37.9862 148.445 38.9957V36.1632ZM151.598 25.92C151.907 27.7608 152.4 29.3819 153.077 30.7833C153.742 29.3582 154.229 27.7371 154.538 25.92H151.598ZM166.758 38.6038C165.666 38.6038 164.757 38.5385 164.033 38.4078C163.308 38.2891 162.655 38.0812 162.073 37.7843C161.99 38.0693 161.931 38.2534 161.895 38.3366C161.836 38.5622 161.794 38.7107 161.77 38.7819H159.312C159.87 37.2261 160.28 35.7832 160.541 34.453C160.803 33.1229 160.963 31.6859 161.022 30.142H158.92V27.8261H163.338C163.338 29.3463 163.285 30.712 163.178 31.9234C163.071 33.1348 162.887 34.3402 162.625 35.5397C163.16 35.8366 163.748 36.0504 164.389 36.181C165.042 36.2998 165.832 36.3592 166.758 36.3592H175.487V38.6038H166.758ZM162.055 22.7491L163.285 26.6148H160.88L159.651 22.7491H162.055ZM163.962 27.1136H175.309V29.3582H169.644L167.738 32.8498H172.227L171.533 31.0683H173.759L175.309 35.0765H164.425V32.8498H165.387L167.275 29.3582H163.962V27.1136ZM164.852 23.1766H174.419V25.3499H164.852V23.1766ZM192.393 34.2036V38.7107H177.999V34.2036H192.393ZM177.002 26.4544H193.213V29.946H191.146V33.5801H178.89V29.946H177.002V26.4544ZM177.269 23.3191H180.814V22.5709H183.13V23.3191H187.085V22.5709H189.4V23.3191H192.945V25.439H189.4V26.205H187.085V25.439H183.13V26.205H180.814V25.439H177.269V23.3191ZM190.897 29.3047V28.5387H179.317V29.3047H190.897ZM190.077 36.9114V36.0029H180.315V36.9114H190.077ZM188.83 31.8878V30.9971H181.206V31.8878H188.83Z" fill="white"/>
<path d="M37.0935 31.6465C34.6609 31.6465 32.687 33.6164 32.687 36.0441C32.687 38.4718 34.6609 40.4417 37.0935 40.4417C39.5262 40.4417 41.5 38.4718 41.5 36.0441C41.5 33.6164 39.5262 31.6465 37.0935 31.6465ZM37.0935 38.1737C35.9145 38.1737 34.9543 37.2154 34.9543 36.0388C34.9543 34.8622 35.9145 33.9039 37.0935 33.9039C38.2725 33.9039 39.2327 34.8622 39.2327 36.0388C39.2327 37.2154 38.2725 38.1737 37.0935 38.1737Z" fill="url(#paint0_linear_9659_21661)"/>
<path d="M15.4787 12.5817C16.41 10.3378 15.3423 7.76534 13.0939 6.8359C10.8455 5.90646 8.26789 6.97201 7.33658 9.21587C6.40527 11.4597 7.47296 14.0322 9.72135 14.9616C11.9697 15.8911 14.5474 14.8255 15.4787 12.5817Z" fill="url(#paint1_linear_9659_21661)"/>
<path d="M24.2475 15.2965C26.6811 15.2965 28.6539 13.3277 28.6539 10.8989C28.6539 8.47019 26.6811 6.50131 24.2475 6.50131C21.8138 6.50131 19.841 8.47019 19.841 10.8989C19.841 13.3277 21.8138 15.2965 24.2475 15.2965Z" fill="url(#paint2_linear_9659_21661)"/>
<path d="M11.4066 27.8664C13.8392 27.8664 15.8131 25.8965 15.8131 23.4688C15.8131 21.041 13.8392 19.0712 11.4066 19.0712C8.97397 19.0712 7.00012 21.041 7.00012 23.4688C7.00012 25.8965 8.97397 27.8664 11.4066 27.8664ZM11.4066 21.3339C12.5856 21.3339 13.5458 22.2922 13.5458 23.4688C13.5458 24.6454 12.5856 25.6037 11.4066 25.6037C10.2276 25.6037 9.26738 24.6454 9.26738 23.4688C9.26738 22.2922 10.2276 21.3339 11.4066 21.3339Z" fill="url(#paint3_linear_9659_21661)"/>
<path d="M24.2475 27.8664C26.6811 27.8664 28.6539 25.8975 28.6539 23.4688C28.6539 21.0401 26.6811 19.0712 24.2475 19.0712C21.8138 19.0712 19.841 21.0401 19.841 23.4688C19.841 25.8975 21.8138 27.8664 24.2475 27.8664Z" fill="url(#paint4_linear_9659_21661)"/>
<path d="M35.9888 27.7227C35.9888 27.7227 36.0261 27.7334 36.0421 27.7387C36.0581 27.7387 36.0741 27.7493 36.0741 27.7493C36.3995 27.8239 36.741 27.8665 37.0877 27.8665C39.5204 27.8665 41.4942 25.8966 41.4942 23.4689C41.4942 21.7226 40.4699 20.2212 38.9922 19.5131C38.9922 19.5131 38.9442 19.4918 38.8749 19.4599C38.8695 19.4599 38.8642 19.4546 38.8589 19.4492C38.6135 19.3215 38.1227 18.9861 38.1227 18.3046V16.0632C38.1227 15.2752 38.6028 15.0197 38.7628 14.9558C38.7788 14.9505 38.7948 14.9452 38.8108 14.9398H38.8162C40.3899 14.269 41.4942 12.7144 41.4942 10.8989C41.4942 8.47119 39.5204 6.50131 37.0877 6.50131C34.6551 6.50131 32.6812 8.47119 32.6812 10.8989C32.6812 12.6984 33.7695 14.2424 35.3219 14.9239C35.3219 14.9239 35.3326 14.9239 35.3379 14.9292C35.3486 14.9292 35.3539 14.9345 35.3646 14.9398C35.5193 15.0037 36.0528 15.2806 36.0528 15.8396V18.1928C36.0528 18.9807 35.6313 19.2949 35.4073 19.412C35.3646 19.428 35.3219 19.4492 35.2846 19.4652C35.2739 19.4652 35.2633 19.4705 35.2633 19.4705H35.2686C33.7482 20.1627 32.6866 21.6853 32.6866 23.4689C32.6866 24.0013 32.7933 24.507 32.964 24.9755H32.9533C32.9533 24.9755 33.4441 26.0031 32.7453 26.6845L27.5652 31.6997C26.8664 32.3759 25.9808 31.9979 25.9808 31.9979V32.0139C25.4527 31.7849 24.8712 31.6412 24.2524 31.6412C22.4332 31.6412 20.8755 32.7432 20.2033 34.3085C20.2033 34.3085 20.2033 34.3138 20.2033 34.3191C20.2033 34.3245 20.198 34.3351 20.1926 34.3404C20.134 34.4735 19.8939 35.0059 18.939 35.0059H16.6877C15.7648 35.0059 15.4661 34.3138 15.4661 34.3138C14.7939 32.7432 13.2308 31.6465 11.417 31.6465C8.98439 31.6465 7.01054 33.6164 7.01054 36.0441C7.01054 38.4719 8.98439 40.4417 11.417 40.4417C13.2308 40.4417 14.7886 39.345 15.4607 37.7851C15.4607 37.7851 15.7488 37.0823 16.7998 37.0823H18.987C19.6058 37.0823 20.102 37.4071 20.166 37.6733C20.182 37.7105 20.1926 37.7478 20.2087 37.7851V37.7957C20.8862 39.3556 22.4386 40.4524 24.2524 40.4524C26.685 40.4524 28.6589 38.4825 28.6589 36.0548C28.6589 35.6448 28.5948 35.2508 28.4881 34.8728H28.4935C28.4935 34.8728 28.1947 33.9837 28.8189 33.3821C28.8349 33.3715 28.8402 33.3608 28.8562 33.3449L34.303 28.0688C34.8792 27.5098 35.7274 27.6642 35.9941 27.7334L35.9888 27.7227ZM37.0931 21.3339C38.272 21.3339 39.2323 22.2923 39.2323 23.4689C39.2323 24.6455 38.272 25.6038 37.0931 25.6038C35.9141 25.6038 34.9538 24.6455 34.9538 23.4689C34.9538 22.2923 35.9141 21.3339 37.0931 21.3339ZM11.4064 38.1737C10.2274 38.1737 9.26713 37.2154 9.26713 36.0388C9.26713 34.8622 10.2274 33.9039 11.4064 33.9039C12.5853 33.9039 13.5456 34.8622 13.5456 36.0388C13.5456 37.2154 12.5853 38.1737 11.4064 38.1737Z" fill="url(#paint5_linear_9659_21661)"/>
<defs>
<linearGradient id="paint0_linear_9659_21661" x1="-76.3263" y1="-91.8221" x2="28.019" y2="31.6622" gradientUnits="userSpaceOnUse">
<stop offset="0.11" stop-color="#0AD8D4"/>
<stop offset="0.96" stop-color="#264AF4"/>
</linearGradient>
<linearGradient id="paint1_linear_9659_21661" x1="30.6003" y1="11.126" x2="-41.237" y2="155.324" gradientUnits="userSpaceOnUse">
<stop offset="0.11" stop-color="#0AD8D4"/>
<stop offset="0.96" stop-color="#264AF4"/>
</linearGradient>
<linearGradient id="paint2_linear_9659_21661" x1="-6.21943" y1="-11.4833" x2="98.105" y2="112.001" gradientUnits="userSpaceOnUse">
<stop offset="0.11" stop-color="#0AD8D4"/>
<stop offset="0.96" stop-color="#264AF4"/>
</linearGradient>
<linearGradient id="paint3_linear_9659_21661" x1="-9.28935" y1="-14.9566" x2="95.0559" y2="108.528" gradientUnits="userSpaceOnUse">
<stop offset="0.11" stop-color="#0AD8D4"/>
<stop offset="0.96" stop-color="#264AF4"/>
</linearGradient>
<linearGradient id="paint4_linear_9659_21661" x1="-30.6117" y1="-39.4138" x2="73.7336" y2="84.0706" gradientUnits="userSpaceOnUse">
<stop offset="0.11" stop-color="#0AD8D4"/>
<stop offset="0.96" stop-color="#264AF4"/>
</linearGradient>
<linearGradient id="paint5_linear_9659_21661" x1="10.2326" y1="7.17745" x2="37.3234" y2="38.792" gradientUnits="userSpaceOnUse">
<stop offset="0.11" stop-color="#0AD8D4"/>
<stop offset="0.96" stop-color="#264AF4"/>
</linearGradient>
</defs>
</svg>
